# xmcd
#
# Track frame offsets:
# 150
# 11114
# 23377
# 42879
# 53639
# 66261
# 79553
# 92488
# 106945
# 119308
#
# Disc length: 1717 seconds
#
#
# Revision: 0
# Processed by: cddbd v1.5.1PL2 Copyright (c) Steve Scherf et al.
# Submitted via: FreeRIP 2.945 
#
DISCID=6c06b30a
DTITLE=Gene Watson - Texas Saturday Night
DYEAR=1985
DGENRE=Country
TTITLE0=Texas Saturday Night
TTITLE1=Got No Reason Now For Goin' Home
TTITLE2=You Waltzed Yourself Right Into Your Life
TTITLE3=My Memories Of You
TTITLE4=If I Were You I'd Fall In Love With Me
TTITLE5=You're Just Another Beer Drinkin Song
TTITLE6=One Hell Of A Heartache
TTITLE7=You Sure Make Cheatin Seem Easy
TTITLE8=I'm Tellin'  Me A Lie
TTITLE9=Drinkin' My Way Back Home
EXTD=
EXTT0=
EXTT1=
EXTT2=
EXTT3=
EXTT4=
EXTT5=
EXTT6=
EXTT7=
EXTT8=
EXTT9=
PLAYORDER=
